<svg xmlns="http://www.w3.org/2000/svg" viewBox="0 0 338.88 464.18"><defs><style>.cls-1{fill:#231f20;}</style></defs><title>Sclerotinia_icon_black</title><g id="Layer_2" data-name="Layer 2"><g id="Layer_1-2" data-name="Layer 1"><path class="cls-1" d="M274.86,330.38a6.71,6.71,0,0,0-1.11,1.47c-.61,1.11-.46,2.39-.26,3.89.26,1.79.5,3.81-.59,5.72a13.17,13.17,0,0,1-2.5,3.05,9.68,9.68,0,0,0-2.55,3.3,1,1,0,0,1-.67.65c-1.63.44-3.19-.48-4.69-1.41-1.33-.85-2.59-1.54-3.81-1.37-1,.17-1,.37-1.26,1.72a16.91,16.91,0,0,1-.37,1.69,10.61,10.61,0,0,1-3.3,5.35l-.31.28c-1.19,1.13-2.37,2.27-3.56,3.29a.66.66,0,0,0-.22.37,1.68,1.68,0,0,1-1.7,1.26l-.35,0c-1.15-.13-2.28-1.53-3.37-2.83a11.78,11.78,0,0,0-1.28-1.41c-.58-.46-1.15-.85-1.69-1.24a16.65,16.65,0,0,1-5.16-5,15.17,15.17,0,0,1-1.43-3.42,17.11,17.11,0,0,0-.89-2.35,14.41,14.41,0,0,0-2-2.54c-1.32-1.39-2.87-3.07-3.41-5.09a2.68,2.68,0,0,0-.39,0,1.18,1.18,0,0,1-1-1.26,1.17,1.17,0,0,1,1-1.24h.3a1,1,0,0,1,1.24-.93,1.24,1.24,0,0,1,.79,1.26c1.34.24,3.8.61,4.3-.07a4,4,0,0,0,.37-2.5c-.06-1.61-.13-3.78,1.78-5.56a24.67,24.67,0,0,1,4.37-3.11,25.38,25.38,0,0,0,4.26-3c.53-.5,1-1,1.57-1.55a47.26,47.26,0,0,1,5.33-4.78c2.91-2.11,7.54-4.09,11.06-2.87,2.15.76,3.65,3.11,5,5.17.5.74,1,1.44,1.39,2.05s1,1.22,1.46,1.82a40.23,40.23,0,0,1,4.06,5.76c1.63,3,.87,4.2-.32,5.51M338.12,278a16.13,16.13,0,0,1,0-2.95c-.11,0-.2.13-.33.13a.47.47,0,0,1-.24-.05,8.69,8.69,0,0,1-2.37-1.21,12.61,12.61,0,0,0-1.91-1l-.87-.22a6,6,0,0,1-2.35-.85,3.34,3.34,0,0,1-.67-.72,1.11,1.11,0,0,1-.65.59c-2.63.72-3.11,1.61-3.66,4.72-.41,2.43-1.08,6.37-4.63,6.37a5.55,5.55,0,0,1-1.08-.13c-1-.18-1.9-.42-2.74-.66a17.91,17.91,0,0,0-4.85-.82c-2.55,0-5.39,0-7.39-3.59-.79-1.41-1.48-2.91-2.16-4.41-.63-1.31-1.23-2.63-1.93-3.89-1.72-3.22-2.07-5.33.91-7.87,2.22-1.89,3.44-2.92,4.11-5.92.61-2.76,1.07-4.8,3-7,2.95-3.37,5.8-2.8,8.3-2.3,1.83.35,3.55.61,5.33-.31a11.16,11.16,0,0,1-.28-5.1c.26-2.22.58-4.44.91-6.7,1-7,2-14.18,1.37-21.22a13.76,13.76,0,0,0-4.22-8.7c-2.22-2.23-4.09-6-5.17-10.43a49.22,49.22,0,0,1-1.13-11.33c-.05-1-.07-2.06-.09-3.11-.17-4.54-.59-5.63-4.39-6.65a1,1,0,0,1-.5-.43c-.26,0-.5-.13-.78-.16s-.7-.1-1-.17a9.21,9.21,0,0,1-1.35-.39A13.29,13.29,0,0,0,303,171c-1.18-.11-2.35-.24-3.55-.39a44.83,44.83,0,0,0-5.39-.44,11.58,11.58,0,0,0-1.35.09,12.12,12.12,0,0,1-3.3-.11,3.26,3.26,0,0,1-1.72-1.26c-.15-.13-.3-.3-.48-.48-1.24-1.11-2.56-.95-4.24-.71-.69.06-1.43.17-2.15.17h0c-.33,0-.79,0-1.29.07-2.82.17-5.32.21-6.32-1.4-.09-.13-.07-.3-.11-.43-.52.54-1.09,1.09-1.65,1.59a21.49,21.49,0,0,0-1.68,1.63,11.14,11.14,0,0,0-1.39,2.26,13.56,13.56,0,0,1-1.59,2.56c-2,2.48-4.39,2-6.41,1.59-.46-.09-.91-.2-1.39-.26-2.22-.28-2.52.48-3.28,2.22a10.21,10.21,0,0,1-2.26,3.63c-1.18,1.15-2.44,2.21-3.7,3.28s-2.61,2.24-3.85,3.44a12.86,12.86,0,0,0-2.52,4.54c-1.09,2.74-2.35,5.83-6,6.37l-.52.09c-2.13.32-3.54.52-5.28,2.08s-1.35,3.92-.72,7.87c.41,2.63.85,5.37.15,7.63a1.24,1.24,0,0,1-.69.74c-1.16.44-2.33.83-3.5,1.2a52.63,52.63,0,0,0-7.22,2.82,9.25,9.25,0,0,1-3.42.81c-1.69.15-2.69.28-3.32,1.54-1.15,2.42-1.55,5.68-1.87,8.55l-.13,1.26c-.07.45-.13.95-.2,1.43-.21,2.39-.5,5.11-1.84,7.24-1.72,2.74-6.14,6-8.7,6.44a49.69,49.69,0,0,1-14,.34,32.57,32.57,0,0,1-3.72-.73c-1-.2-2-.46-3.08-.61-.48-.09-1-.13-1.59-.18-2-.17-4.37-.37-5.91-1.82a6.72,6.72,0,0,1-1.26-1.83,7.28,7.28,0,0,0-.68-1.15,16.94,16.94,0,0,0-1.78-1.7c-.5-.45-1-.93-1.52-1.43-1.72-1.76-2.92-1.55-5.31-1.13l-.91.15c-.5.06-1.2.11-2,.15-1.82.05-5.19.2-5.5,1.61a5.52,5.52,0,0,0,.24,1.59,8.33,8.33,0,0,1,.33,2.67,11.25,11.25,0,0,1-.81,2.94,11.67,11.67,0,0,0-.54,1.84,14,14,0,0,0-.07,3.35c.11,2,.22,4.05-.63,5.81-.95,2-2.91,2.74-4.63,3.32a14.9,14.9,0,0,0-1.82.76,34.73,34.73,0,0,0-5.29,3.83,27.89,27.89,0,0,1-7.08,4.7,14.93,14.93,0,0,0-2.11,1.17,8,8,0,0,1-4.31,1.61H126a26.21,26.21,0,0,1-5.22-.94,30.19,30.19,0,0,0-3.5-.78c-6.82-1-10.48-4.48-10-9.63a9.74,9.74,0,0,1,2.76-5.83c1.39-1.69,2.33-2.82,1.44-5.69-.44-1.41-.83-2.94-1.22-4.44a39.86,39.86,0,0,0-3.42-9.78c-1.54-2.76-3.84-6.7-6.58-7.74,0,.54.06,1.11,0,1.65,0,.94,0,1.87,0,2.81V235c0,1.53,0,3.07,0,4.59,0,3-.09,6.09,0,9.09a18.31,18.31,0,0,0,.2,2c.08,1,.19,1.92.19,3,0,2.19-.08,4.35-.17,6.52s-.22,4.26-.22,6.39,0,4.42.09,6.61.06,4.44.06,6.65c0,1.55,0,3.07-.11,4.59,0,2-.1,4-.06,5.94l0,2.06a41.41,41.41,0,0,1-.15,8c-.06.5-.15,1.09-.28,1.68a13.49,13.49,0,0,0-.28,4.8l.58,0a1.15,1.15,0,0,1,1,1.26,1.12,1.12,0,0,1-1,1.21h-.28c0,.09,0,.18-.09.2a.88.88,0,0,1-.65.3,1,1,0,0,1-.78-.45.06.06,0,0,1,0-.05,2.81,2.81,0,0,0-.41,0,8.29,8.29,0,0,0-2.78,1.11c-.31.18-.63.35-.94.5l-.32.13a16.49,16.49,0,0,0-4.46,2.83,6,6,0,0,0-1,1.61,7.47,7.47,0,0,1-1.56,2.41,7.35,7.35,0,0,1-.85.72,7.34,7.34,0,0,0-1,1c-.07.1-.15.28-.24.43a3.15,3.15,0,0,1-1.11,1.44c-1.7,1-3-.81-3.63-1.77a3,3,0,0,0-.44-.56,16.16,16.16,0,0,0-2.71-2.72c-.48-.35-.74-.22-1.72.72l-.52.5a8.07,8.07,0,0,1-4.09,1.87,6.25,6.25,0,0,1-3.3-.61,7.31,7.31,0,0,0-1.11-.39c-.85-.26-1.7-.46-2.55-.65L62,317.64c-1.24-.33-2.46-.66-3.7-1.11a12.11,12.11,0,0,0-2.71-.59,18.27,18.27,0,0,1-2.59-.52c-2.46-.74-3.31-4.33-4-7.22a18.48,18.48,0,0,0-.5-1.91c-.13-.48-.28-1-.42-1.52a14.44,14.44,0,0,0-1.19-3.35,9.39,9.39,0,0,0-2.65-2.33,1.2,1.2,0,0,0-.42-.19,3.58,3.58,0,0,0-.54.84,8.19,8.19,0,0,0-.41.74c-.33.52-.68,1-1,1.52a16,16,0,0,0-1.8,3.24l-.28.76A12.26,12.26,0,0,1,38,309.74a7.38,7.38,0,0,1-.79,1,9.3,9.3,0,0,0-1.87,3.16c-.32,1.17.31,3,.72,4.3l.13.37a17.23,17.23,0,0,0,1.89,3.67,21.89,21.89,0,0,1,2,3.63,36.63,36.63,0,0,1,1.09,3.83c.13.54.26,1.11.43,1.7a27.39,27.39,0,0,0,2.55,6.45,12.8,12.8,0,0,1,2.19,5.94,17.36,17.36,0,0,0,1.89,5.74,58.65,58.65,0,0,0,6.61,10.65c.31.39.63.83.94,1.24A20.09,20.09,0,0,0,57,363l.41.39a7.46,7.46,0,0,1,1.17,1.37A13.09,13.09,0,0,1,60,368a11.51,11.51,0,0,0,.65,1.82,25.9,25.9,0,0,0,1.87,3.31c.32.5.63,1,.93,1.52s.74,1.15,1.09,1.72a15.26,15.26,0,0,1,3,6.67A38.7,38.7,0,0,1,68,389c0,.8,0,1.61.08,2.45a21.65,21.65,0,0,1-.47,7.16c-.72,2.43-2.59,3.76-4.24,4.93a17.93,17.93,0,0,0-1.79,1.41c-.3.29-.63.55-.93.81s-1.09.89-1.13,1.15c0,0,0,.22.32.78a23,23,0,0,1,2.07,4.92c.3.91.61,1.82,1,2.71.69,1.59,1.56,3.2,2.43,4.77l.59,1.06a19.5,19.5,0,0,1,1.43,3.5c.29.76.57,1.57.89,2.33,1.05,2.28.94,4.45.83,6.74L69,435c-.06.93-.1,1.84-.08,2.78,0,.46.11.89.17,1.35a10.4,10.4,0,0,1,.22,1.39c.39.26.76.5,1.13.76s.85.56,1.3.82a7,7,0,0,0,2.7.59l1,.13c4,.61,7.46,2.18,11.13,3.83l.33.15a24.31,24.31,0,0,1,5.89,3.35c.26.22.54.48.8.69A5.89,5.89,0,0,0,96,452.42c.37.09.45,0,1-.82a8.67,8.67,0,0,1,.8-1.11,19.53,19.53,0,0,1,2.85-2.46c1-.71,2-1.43,3.06-2.19a8.92,8.92,0,0,1,2.53-1.22,8.23,8.23,0,0,0,1.89-.89c.24-.15.45-.35.67-.5a5.29,5.29,0,0,1,3.22-1.44,34.26,34.26,0,0,0,3.63-.34c.7-.09,1.41-.2,2.13-.26a64.33,64.33,0,0,1,8.78-.11c1.37.06,2.79.11,4.16.11a7.09,7.09,0,0,0,4.67-1.66,34.07,34.07,0,0,1,3.76-2.17,17.22,17.22,0,0,0,1.59-.85c.43-.22.89-.43,1.32-.63a15.79,15.79,0,0,0,3.26-2,7.89,7.89,0,0,1,6.07-2.09h.2c5,0,9.87,0,14.67.46,4.37.39,8.94,1,12.83,2.76.52.28,1.06.54,1.65.87,2.78,1.44,5.93,3.07,8.11,1.15a43.37,43.37,0,0,1,6.59-4.69,55.26,55.26,0,0,0,4.89-3.31,5.31,5.31,0,0,0,1.24-1.43,9.5,9.5,0,0,1,.63-.87,4.94,4.94,0,0,1,2.93-1.72,16.24,16.24,0,0,1,7.59.2c.52.08,1.07.15,1.59.26a25.8,25.8,0,0,1,2.84.54,9.1,9.1,0,0,1,1,.39c.8.35,1.06.41,1.41.13a3.12,3.12,0,0,0,.52-.67,6.66,6.66,0,0,1,.83-1.05,6,6,0,0,1,1.87-1.1,11,11,0,0,1,3-1.79c.35-.15.67-.26,1-.39a15.51,15.51,0,0,0,2.54-1.56,18.42,18.42,0,0,1,3.09-1.81,8.26,8.26,0,0,1,2.54-.56,8.05,8.05,0,0,0,1.94-.37c1-.42,2.17-1.89,3-2.85a28.9,28.9,0,0,1,6.89-6.28A33.81,33.81,0,0,0,253.2,402a24.38,24.38,0,0,1,4.33-4.17,36.85,36.85,0,0,1,3.41-2.13,33.84,33.84,0,0,0,3.68-2.42,10.12,10.12,0,0,0,1.71-1.87,21.15,21.15,0,0,1,1.48-1.74,23.24,23.24,0,0,0,3.05-4,24.55,24.55,0,0,1,3.73-4.7,29.65,29.65,0,0,0,5.77-6.76,70.05,70.05,0,0,1,6.52-9.33,34.91,34.91,0,0,0,4.17-5.93,32.17,32.17,0,0,1,2-3.05,24.84,24.84,0,0,0,1.54-2.21,12.6,12.6,0,0,1,2.63-3,14.69,14.69,0,0,0,1.59-1.57A23.07,23.07,0,0,0,302,342.9a39.47,39.47,0,0,1,1.94-4.42,20.68,20.68,0,0,1,4.71-5.5,22.65,22.65,0,0,0,3.72-4,18.16,18.16,0,0,1,1.37-1.83,23.23,23.23,0,0,0,1.39-1.91l.52-.85a28.7,28.7,0,0,1,2.7-3.94,17.42,17.42,0,0,1,2.15-2.06,15,15,0,0,0,2.07-2.07,7.41,7.41,0,0,0,.56-.89c.15-.24.31-.48.44-.71a6.26,6.26,0,0,1,1-1.09,9.53,9.53,0,0,0,.63-.72,3,3,0,0,0,.32-.65,7.77,7.77,0,0,1,.63-1.13c.53-.76,1.09-1.44,1.66-2.11s1-1.15,1.41-1.76l.63-.87a13.63,13.63,0,0,0,2.39-4c.26-.9.41-1.77.59-2.66a21,21,0,0,1,.78-3.39c.5-1.5,1.09-3,1.65-4.46.46-1.13.92-2.28,1.31-3.45.22-.61.48-1.28.74-1.94a26.53,26.53,0,0,0,1.5-4.67,4.6,4.6,0,0,0-.31-2.07,10.18,10.18,0,0,1-.41-1.74"/><path class="cls-1" d="M319.35,336c0-.47,0-.94,0-1.4a32.57,32.57,0,0,1-4.66,5,13.76,13.76,0,0,0-2.84,3.1c-.21.39-.42.84-.62,1.32,0,.75.06,1.5.06,2.27,0,2.39-.07,4.77-.19,7.14,0,.34,0,.68,0,1-.12,2.25-.29,4.48-.51,6.71,0,.42-.08.83-.13,1.25-.23,2.2-.5,4.39-.83,6.57-.05.36-.12.72-.17,1.09-.36,2.25-.75,4.49-1.2,6.71,0,.1-.05.19-.07.29-.44,2.17-.94,4.31-1.48,6.43-.09.34-.17.68-.25,1-.54,2.07-1.13,4.12-1.75,6.16-.14.44-.27.88-.41,1.32q-.94,3-2,5.93c-.15.42-.31.83-.46,1.25-.75,2-1.52,4-2.35,5.94l-.31.72c-.78,1.82-1.6,3.62-2.44,5.4-.18.38-.35.76-.54,1.13-.88,1.82-1.81,3.62-2.76,5.4-.26.47-.51.95-.77,1.43-.95,1.73-1.93,3.43-2.95,5.12-.28.47-.57.94-.86,1.41-1,1.7-2.12,3.38-3.23,5-.24.36-.49.7-.73,1.06q-1.5,2.18-3.07,4.31c-.3.41-.59.82-.89,1.22q-1.74,2.31-3.57,4.53c-.39.5-.79,1-1.2,1.47q-1.8,2.16-3.68,4.25c-.43.48-.87.95-1.31,1.43-1.28,1.39-2.58,2.77-3.92,4.11L266,454.27c-1.16,1.14-2.34,2.27-3.54,3.37-.41.38-.81.77-1.23,1.14-1.39,1.26-2.82,2.49-4.26,3.69l-1.54,1.29-.51.42A159.43,159.43,0,0,0,319.35,336ZM234.73,65.19c-1.68-4.31-11.83-8.73-18.53-5s-.37,9.92,1.73,17.31-6.66,16.72-17.08,32.23-7.8,36-2.65,58.94a88.67,88.67,0,0,1,2,12.87A157.84,157.84,0,0,0,184,178.18c0-6.07-.35-13.65,1.11-17.77,2.55-7.24-4.26-33.61-3.41-47.23s4.68-18.72,7.23-22.12,0-6.38-5.1-6.81-3.83,2.56-4.68,6-3,25.1-1.7,37,4.68,28.51,3.4,34.89c-1.1,5.48-2.18,11.27-1.39,15.49a165.11,165.11,0,0,0-16.9-1.19c-3.93-25.55,6.72-56.41,8.65-73.39,2.39-21.14-4-63-2-71.81s9.58-12,10.37-14.36,6-4.39,8-9.18-6-9.17-14.36-7.18S154,1.69,138.86,2.09s-23.94,5.19-35.11,18,2.8,22.74,13.57,20.35S128.09,42,141.25,57.54s16.76,44.69,11.18,75c-3,16-3.21,30.91-.81,44a158.91,158.91,0,0,0-21,2.47c-1.49-14.23,2.12-30.15,2.3-39.32.27-13.26-6.11-38.9-5.38-44.47s5.25-8,5.61-9.51,3.46-3.07,4.42-6.16-4.24-5.35-9.33-3.63-11.82,1.85-21.21,3S92.51,83.5,86.31,92.08s3,14,9.6,11.84,6.78.37,15.85,9.27,13,26.78,11.26,45.92a82.59,82.59,0,0,0,.69,21.35q-3.84.89-7.6,1.95c-.14-.24-.26-.48-.4-.71-9.94-15.64-18.27-25.1-16.31-32.44S107.33,135.84,101,132s-16,.42-17.54,4.7,2.78,7.48,5,9.56,9,18.31,14.52,25.28a83,83,0,0,1,8.39,12.24q-7,2.24-13.77,5.06a11,11,0,0,1-1.12-2.57c-.88-3.45-2.64-7.77-4.84-6.47s-1.32,2.59,0,6c.53,1.39,1.28,3.13,2,4.77q-3.63,1.65-7.14,3.46c-5-6.84-7.87-14.29-6.89-19.79,1-5.91.48-7,3.53-7.81s5.11-5.4.46-7.24-7.54-1.89-11.4.09-6.45,3.67-8.84,4.29-3.76,2.88-2.56,3.87,2.78.8,3.32,1.32,2.91.33,4.68,2.37,6.22,14,9.87,19.22c1.06,1.52,2.67,3.37,4.42,5.45A159.7,159.7,0,0,0,64.43,464.18l-.51-.42c-.52-.42-1-.86-1.55-1.29q-2.16-1.8-4.25-3.69c-.42-.37-.83-.76-1.24-1.14q-1.79-1.67-3.53-3.37c-.4-.39-.8-.77-1.18-1.16-1.34-1.34-2.64-2.72-3.92-4.11l-1.32-1.43c-1.25-1.39-2.47-2.81-3.68-4.25l-1.2-1.47q-1.81-2.22-3.56-4.52l-.9-1.24Q36,434,34.53,431.79l-.74-1.06c-1.11-1.65-2.17-3.33-3.22-5l-.87-1.41c-1-1.69-2-3.39-2.94-5.12L26,417.73c-.95-1.78-1.87-3.57-2.76-5.39-.18-.37-.35-.75-.53-1.13q-1.28-2.67-2.44-5.39c-.1-.25-.21-.49-.32-.74-.82-1.95-1.59-3.93-2.34-5.93-.15-.42-.31-.83-.47-1.25q-1.05-2.94-2-5.93c-.14-.44-.28-.88-.41-1.33-.62-2-1.21-4.08-1.75-6.15-.09-.34-.17-.68-.25-1-.54-2.12-1-4.26-1.48-6.42,0-.1-.05-.2-.07-.31-.45-2.21-.84-4.45-1.2-6.7-.06-.36-.12-.73-.17-1.1-.33-2.17-.6-4.35-.84-6.55l-.12-1.27q-.33-3.33-.51-6.69c0-.34,0-.68-.05-1-.11-2.37-.18-4.74-.18-7.13h0v0c0-2.33.07-4.64.18-6.94,0-.65.06-1.3.1-1.94q.17-2.78.42-5.52c.05-.5.08-1,.14-1.49q.35-3.36.84-6.67c.09-.56.19-1.12.28-1.68.27-1.72.58-3.43.91-5.13.13-.65.26-1.31.4-2q.66-3.21,1.46-6.37c.09-.33.19-.65.27-1q.72-2.71,1.53-5.38c.22-.72.45-1.44.68-2.15.48-1.53,1-3,1.53-4.54.21-.6.41-1.2.63-1.8.71-1.91,1.47-3.81,2.25-5.69.31-.75.64-1.49,1-2.23.55-1.26,1.12-2.51,1.7-3.75.37-.79.74-1.59,1.13-2.37.78-1.61,1.59-3.19,2.44-4.77.47-.89,1-1.77,1.47-2.66.61-1.09,1.23-2.18,1.87-3.25.53-.89,1.07-1.77,1.61-2.65s1.19-1.87,1.8-2.8c.9-1.38,1.81-2.73,2.75-4.07.67-1,1.34-1.91,2-2.85s1.42-1.89,2.14-2.83c.53-.69,1.07-1.37,1.61-2,.77-1,1.54-1.93,2.34-2.88l1.09-1.26q2.45-2.85,5-5.58L51,240.64c1-1,1.94-2,2.93-2.93l1.08-1c2.16-2.06,4.37-4.07,6.64-6l.26-.22c1.16-1,2.33-1.93,3.52-2.87l1-.8q5.61-4.38,11.62-8.23l.78-.5c1.35-.85,2.71-1.69,4.09-2.5l.21-.12q4.41-2.58,9-4.87h0c.91-.46,1.83-.92,2.76-1.36h0a150,150,0,0,1,16.66-6.68l.27-.09a149.87,149.87,0,0,1,17.86-4.77h0c2.36-.47,4.73-.9,7.12-1.26,2-.3,4-.55,6-.77,1-.11,2-.2,2.94-.29s1.88-.15,2.83-.21c3.65-.27,7.31-.45,11-.45,3.13,0,6.22.13,9.29.31h0q7.56.47,14.91,1.64h0c2.43.39,4.85.84,7.24,1.34l.27.07c2.33.49,4.63,1,6.92,1.64h0c1.76.46,3.5,1,5.23,1.48h0c1.55.47,3.07,1,4.59,1.49l1.75.59c1.44.51,2.86,1,4.28,1.58l1.85.73c1.42.57,2.83,1.15,4.22,1.76.47.2.93.42,1.4.63-.52-4.25-.48-9.53,4-13.46a16.12,16.12,0,0,1,3.29-2.29c-.92-.45-1.84-.91-2.77-1.34.79-1.71,1.58-3.54,2.14-5,1.32-3.45,2.2-4.75,0-6s-4,3-4.84,6.47a11.71,11.71,0,0,1-1.24,2.79,158.5,158.5,0,0,0-18.14-6.42c-.81-8.44-2.68-18-5-29.3-6-29.1,9.32-46.68,15.12-53.58s12.84-23,15.23-25.09,7-5.17,5.28-9.49Z"/></g></g></svg>