<svg xmlns="http://www.w3.org/2000/svg" viewBox="0 0 652.87 286.34"><defs><style>.cls-1{fill:#231f20;}</style></defs><title>Sclerotinia_landscape_black</title><g id="Layer_2" data-name="Layer 2"><g id="Layer_1-2" data-name="Layer 1"><path class="cls-1" d="M271,157.39c11.24,0,17,6.72,17,18.49v2.31H277.07v-3.05c0-5.25-2.1-7.25-5.77-7.25s-5.78,2-5.78,7.25c0,15.13,22.58,18,22.58,39,0,11.76-5.88,18.48-17.22,18.48s-17.23-6.72-17.23-18.48v-4.52h10.93v5.25c0,5.25,2.31,7.15,6,7.15s6-1.9,6-7.15c0-15.12-22.58-18-22.58-39,0-11.77,5.77-18.49,17-18.49Z"/><path class="cls-1" d="M328.22,204.34v9.77c0,11.76-5.88,18.48-17.22,18.48s-17.23-6.72-17.23-18.48V175.88c0-11.77,5.88-18.49,17.23-18.49s17.22,6.72,17.22,18.49V183H317.3v-7.88c0-5.25-2.31-7.25-6-7.25s-6,2-6,7.25v39.7c0,5.25,2.31,7.15,6,7.15s6-1.9,6-7.15v-10.5Z"/><polygon class="cls-1" points="335.26 158.23 346.81 158.23 346.81 221.25 365.82 221.25 365.82 231.75 335.26 231.75 335.26 158.23 335.26 158.23"/><polygon class="cls-1" points="382.42 189.22 398.28 189.22 398.28 199.72 382.42 199.72 382.42 221.25 402.38 221.25 402.38 231.75 370.87 231.75 370.87 158.23 402.38 158.23 402.38 168.73 382.42 168.73 382.42 189.22 382.42 189.22"/><path class="cls-1" d="M433.67,231.75c-.63-1.89-1.05-3-1.05-9V211.17c0-6.83-2.31-9.35-7.56-9.35h-4v29.93H409.52V158.23H427c12,0,17.12,5.57,17.12,16.91v5.78c0,7.56-2.41,12.5-7.56,14.91,5.78,2.42,7.67,8,7.67,15.65v11.34c0,3.58.1,6.2,1.26,8.93Zm-12.6-63v22.58h4.52c4.3,0,6.93-1.89,6.93-7.77v-7.25c0-5.25-1.79-7.56-5.88-7.56Z"/><path class="cls-1" d="M450.79,175.88c0-11.77,6.2-18.49,17.55-18.49s17.53,6.72,17.53,18.49v38.23c0,11.76-6.19,18.48-17.53,18.48s-17.55-6.72-17.55-18.48V175.88Zm11.56,39c0,5.25,2.31,7.25,6,7.25s6-2,6-7.25v-39.7c0-5.25-2.31-7.25-6-7.25s-6,2-6,7.25v39.7Z"/><polygon class="cls-1" points="489.97 158.23 525.68 158.23 525.68 168.73 513.6 168.73 513.6 231.75 502.05 231.75 502.05 168.73 489.97 168.73 489.97 158.23 489.97 158.23"/><polygon class="cls-1" points="530.72 158.23 542.27 158.23 542.27 231.75 530.72 231.75 530.72 158.23 530.72 158.23"/><polygon class="cls-1" points="560.97 178.5 560.97 231.75 550.57 231.75 550.57 158.23 565.07 158.23 576.93 202.24 576.93 158.23 587.23 158.23 587.23 231.75 575.36 231.75 560.97 178.5 560.97 178.5"/><polygon class="cls-1" points="595.53 158.23 607.08 158.23 607.08 231.75 595.53 231.75 595.53 158.23 595.53 158.23"/><path class="cls-1" d="M652.87,231.75H641.21l-2-13.34H625l-2,13.34H612.43l11.77-73.52h16.91l11.76,73.52Zm-26.36-23.31h11.13l-5.56-37.19-5.57,37.19Z"/><path class="cls-1" d="M261.26,110.07c4.93,0,7.46,3,7.46,8.12v1h-4.79v-1.34c0-2.3-.92-3.18-2.53-3.18s-2.54.88-2.54,3.18c0,6.64,9.91,7.89,9.91,17.11,0,5.16-2.58,8.11-7.56,8.11s-7.56-3-7.56-8.11v-2h4.79v2.31c0,2.3,1,3.13,2.63,3.13s2.63-.83,2.63-3.13c0-6.64-9.91-7.88-9.91-17.1,0-5.17,2.54-8.12,7.47-8.12Z"/><path class="cls-1" d="M271.26,118.19c0-5.17,2.72-8.12,7.7-8.12s7.7,3,7.7,8.12V135c0,5.16-2.72,8.11-7.7,8.11s-7.7-3-7.7-8.11V118.19Zm5.07,17.1c0,2.3,1,3.18,2.63,3.18s2.63-.88,2.63-3.18V117.86c0-2.3-1-3.18-2.63-3.18s-2.63.88-2.63,3.18v17.43Z"/><path class="cls-1" d="M294.78,110.44v24.89c0,2.31,1,3.14,2.62,3.14s2.63-.83,2.63-3.14V110.44h4.8V135c0,5.16-2.58,8.11-7.56,8.11s-7.56-3-7.56-8.11V110.44Z"/><polygon class="cls-1" points="306.81 110.44 322.49 110.44 322.49 115.05 317.18 115.05 317.18 142.71 312.11 142.71 312.11 115.05 306.81 115.05 306.81 110.44 306.81 110.44"/><polygon class="cls-1" points="329.77 142.71 324.7 142.71 324.7 110.44 329.77 110.44 329.77 124.27 335.53 124.27 335.53 110.44 340.7 110.44 340.7 142.71 335.53 142.71 335.53 128.88 329.77 128.88 329.77 142.71 329.77 142.71"/><path class="cls-1" d="M367.94,142.71h-5.11l-.88-5.86h-6.22l-.88,5.86H350.2l5.16-32.27h7.42l5.16,32.27Zm-11.57-10.23h4.89l-2.44-16.32-2.45,16.32Z"/><polygon class="cls-1" points="375.37 124.78 381.92 124.78 381.92 129.39 375.37 129.39 375.37 142.71 370.3 142.71 370.3 110.44 383.71 110.44 383.71 115.05 375.37 115.05 375.37 124.78 375.37 124.78"/><path class="cls-1" d="M396.76,142.71a9.86,9.86,0,0,1-.46-4v-5.08c0-3-1-4.1-3.32-4.1h-1.75v13.14h-5.07V110.44h7.65c5.26,0,7.51,2.44,7.51,7.42v2.54c0,3.32-1.05,5.48-3.31,6.54,2.53,1.06,3.36,3.51,3.36,6.87v5a9.63,9.63,0,0,0,.55,3.92Zm-5.53-27.66V125h2c1.89,0,3-.83,3-3.41v-3.18c0-2.31-.78-3.32-2.58-3.32Z"/><polygon class="cls-1" points="404.69 110.44 409.76 110.44 409.76 142.71 404.69 142.71 404.69 110.44 404.69 110.44"/><path class="cls-1" d="M428.16,130.68V135c0,5.16-2.58,8.11-7.56,8.11s-7.56-3-7.56-8.11V118.19c0-5.17,2.58-8.12,7.56-8.12s7.56,3,7.56,8.12v3.13h-4.8v-3.46c0-2.3-1-3.18-2.62-3.18s-2.63.88-2.63,3.18v17.43c0,2.3,1,3.13,2.63,3.13s2.62-.83,2.62-3.13v-4.61Z"/><path class="cls-1" d="M447.66,142.71h-5.12l-.87-5.86h-6.23l-.87,5.86h-4.66l5.17-32.27h7.42l5.16,32.27Zm-11.57-10.23H441l-2.45-16.32-2.44,16.32Z"/><polygon class="cls-1" points="454.53 119.34 454.53 142.71 449.97 142.71 449.97 110.44 456.33 110.44 461.54 129.76 461.54 110.44 466.06 110.44 466.06 142.71 460.85 142.71 454.53 119.34 454.53 119.34"/><path class="cls-1" d="M264.25,286a10.06,10.06,0,0,1-.46-4v-5.07c0-3-1-4.11-3.32-4.11h-1.75V286h-5.07V253.7h7.65c5.26,0,7.52,2.44,7.52,7.42v2.54c0,3.32-1.06,5.48-3.32,6.55,2.53,1.05,3.36,3.5,3.36,6.86v5a9.46,9.46,0,0,0,.56,3.92Zm-5.53-27.66v9.91h2c1.89,0,3.05-.83,3.05-3.41v-3.18c0-2.3-.79-3.32-2.59-3.32Z"/><polygon class="cls-1" points="277.26 267.3 284.22 267.3 284.22 271.91 277.26 271.91 277.26 281.36 286.01 281.36 286.01 285.97 272.19 285.97 272.19 253.7 286.01 253.7 286.01 258.31 277.26 258.31 277.26 267.3 277.26 267.3"/><path class="cls-1" d="M296,253.33c4.94,0,7.47,2.95,7.47,8.12v1h-4.79v-1.34c0-2.3-.92-3.18-2.54-3.18s-2.53.88-2.53,3.18c0,6.64,9.91,7.89,9.91,17.11,0,5.16-2.58,8.11-7.56,8.11s-7.56-2.95-7.56-8.11v-2h4.79v2.31c0,2.3,1,3.13,2.63,3.13s2.63-.83,2.63-3.13c0-6.64-9.91-7.88-9.91-17.1,0-5.17,2.53-8.12,7.46-8.12Z"/><polygon class="cls-1" points="311.47 267.3 318.43 267.3 318.43 271.91 311.47 271.91 311.47 281.36 320.23 281.36 320.23 285.97 306.4 285.97 306.4 253.7 320.23 253.7 320.23 258.31 311.47 258.31 311.47 267.3 311.47 267.3"/><path class="cls-1" d="M339.77,286h-5.11l-.88-5.85h-6.22l-.88,5.85H322l5.16-32.27h7.42L339.77,286ZM328.2,275.74h4.89l-2.44-16.32-2.45,16.32Z"/><path class="cls-1" d="M352.73,286a9.86,9.86,0,0,1-.46-4v-5.07c0-3-1-4.11-3.32-4.11H347.2V286h-5.07V253.7h7.65c5.26,0,7.51,2.44,7.51,7.42v2.54c0,3.32-1.06,5.48-3.32,6.55,2.54,1.05,3.37,3.5,3.37,6.86v5a9.63,9.63,0,0,0,.55,3.92Zm-5.53-27.66v9.91h2c1.89,0,3-.83,3-3.41v-3.18c0-2.3-.78-3.32-2.58-3.32Z"/><path class="cls-1" d="M375.37,273.94v4.29c0,5.16-2.58,8.11-7.56,8.11s-7.56-2.95-7.56-8.11V261.45c0-5.17,2.58-8.12,7.56-8.12s7.56,2.95,7.56,8.12v3.13h-4.8v-3.46c0-2.3-1-3.18-2.62-3.18s-2.63.88-2.63,3.18v17.43c0,2.3,1,3.13,2.63,3.13s2.62-.83,2.62-3.13v-4.61Z"/><polygon class="cls-1" points="383.53 285.97 378.46 285.97 378.46 253.7 383.53 253.7 383.53 267.53 389.29 267.53 389.29 253.7 394.45 253.7 394.45 285.97 389.29 285.97 389.29 272.14 383.53 272.14 383.53 285.97 383.53 285.97"/><polygon class="cls-1" points="409.81 262.6 409.81 285.97 405.25 285.97 405.25 253.7 411.61 253.7 416.82 273.02 416.82 253.7 421.34 253.7 421.34 285.97 416.13 285.97 409.81 262.6 409.81 262.6"/><polygon class="cls-1" points="430.05 267.3 437.01 267.3 437.01 271.91 430.05 271.91 430.05 281.36 438.81 281.36 438.81 285.97 424.98 285.97 424.98 253.7 438.81 253.7 438.81 258.31 430.05 258.31 430.05 267.3 430.05 267.3"/><polygon class="cls-1" points="440.47 253.7 456.14 253.7 456.14 258.31 450.84 258.31 450.84 285.97 445.77 285.97 445.77 258.31 440.47 258.31 440.47 253.7 440.47 253.7"/><polygon class="cls-1" points="469.61 268.78 467.76 285.97 460.81 285.97 457.21 253.7 462.14 253.7 464.86 279.15 467.3 253.7 472.19 253.7 474.73 279.33 477.35 253.7 481.78 253.7 478.18 285.97 471.45 285.97 469.61 268.78 469.61 268.78"/><path class="cls-1" d="M483.9,261.45c0-5.17,2.72-8.12,7.7-8.12s7.7,2.95,7.7,8.12v16.78c0,5.16-2.72,8.11-7.7,8.11s-7.7-2.95-7.7-8.11V261.45Zm5.07,17.1c0,2.3,1,3.18,2.63,3.18s2.63-.88,2.63-3.18V261.12c0-2.3-1-3.18-2.63-3.18s-2.63.88-2.63,3.18v17.43Z"/><path class="cls-1" d="M513.18,286a9.86,9.86,0,0,1-.46-4v-5.07c0-3-1-4.11-3.32-4.11h-1.76V286h-5.07V253.7h7.66c5.25,0,7.51,2.44,7.51,7.42v2.54c0,3.32-1.06,5.48-3.32,6.55,2.54,1.05,3.37,3.5,3.37,6.86v5a9.46,9.46,0,0,0,.55,3.92Zm-5.54-27.66v9.91h2c1.89,0,3-.83,3-3.41v-3.18c0-2.3-.78-3.32-2.58-3.32Z"/><polygon class="cls-1" points="527.75 273.11 526.18 276.06 526.18 285.97 521.11 285.97 521.11 253.7 526.18 253.7 526.18 267.76 532.82 253.7 537.89 253.7 530.84 268.08 537.89 285.97 532.68 285.97 527.75 273.11 527.75 273.11"/><path class="cls-1" d="M169.55,203.8a4.06,4.06,0,0,0-.68.91,3.76,3.76,0,0,0-.16,2.4,5.29,5.29,0,0,1-.37,3.53,8.16,8.16,0,0,1-1.54,1.88,6,6,0,0,0-1.57,2,.67.67,0,0,1-.41.41,3.84,3.84,0,0,1-2.9-.88,3.73,3.73,0,0,0-2.35-.84c-.61.11-.64.23-.78,1.06a10.45,10.45,0,0,1-.22,1,6.53,6.53,0,0,1-2,3.29l-.19.18c-.74.7-1.46,1.39-2.2,2a.44.44,0,0,0-.13.23,1,1,0,0,1-1,.78h-.21c-.71-.08-1.41-.94-2.08-1.75a10.13,10.13,0,0,0-.79-.87c-.37-.28-.71-.52-1-.76a10.24,10.24,0,0,1-3.18-3.1,8.85,8.85,0,0,1-.88-2.11,13.67,13.67,0,0,0-.55-1.45,9,9,0,0,0-1.26-1.56,7.86,7.86,0,0,1-2.11-3.14,1,1,0,0,0-.24,0,.73.73,0,0,1-.64-.77.71.71,0,0,1,.64-.77h.19a.63.63,0,0,1,.76-.57.74.74,0,0,1,.48.77c.84.15,2.35.38,2.66,0a2.5,2.5,0,0,0,.23-1.54,4,4,0,0,1,1.1-3.43,15.47,15.47,0,0,1,2.69-1.92,15.39,15.39,0,0,0,2.63-1.86c.32-.31.63-.65,1-1a30.45,30.45,0,0,1,3.28-3c1.8-1.3,4.66-2.52,6.83-1.77,1.33.47,2.25,1.92,3.06,3.19l.85,1.27c.3.36.59.75.9,1.12a23.94,23.94,0,0,1,2.51,3.56c1,1.83.54,2.58-.2,3.39m39-32.29a11.17,11.17,0,0,1,0-1.83.44.44,0,0,1-.2.08.31.31,0,0,1-.15,0,5.17,5.17,0,0,1-1.46-.75,7.47,7.47,0,0,0-1.18-.63l-.53-.13a3.63,3.63,0,0,1-1.45-.52,2.14,2.14,0,0,1-.42-.45.69.69,0,0,1-.4.37c-1.62.44-1.92,1-2.25,2.91-.26,1.5-.67,3.93-2.86,3.93a3.38,3.38,0,0,1-.67-.08c-.6-.11-1.17-.26-1.69-.41a10.89,10.89,0,0,0-3-.51c-1.57,0-3.33,0-4.56-2.21-.48-.87-.91-1.8-1.33-2.72s-.76-1.62-1.19-2.4c-1.06-2-1.28-3.29.56-4.86,1.37-1.16,2.12-1.79,2.54-3.65a8.52,8.52,0,0,1,1.82-4.31c1.82-2.08,3.58-1.73,5.12-1.43a4.78,4.78,0,0,0,3.29-.18,7,7,0,0,1-.18-3.15c.16-1.37.37-2.74.57-4.13.61-4.31,1.24-8.75.84-13.09a8.47,8.47,0,0,0-2.6-5.37,14.25,14.25,0,0,1-3.19-6.44,30.07,30.07,0,0,1-.7-7c0-.65,0-1.28-.05-1.92-.11-2.8-.37-3.47-2.71-4.1a.58.58,0,0,1-.31-.27c-.16,0-.31-.08-.48-.1s-.43-.06-.61-.1a5.69,5.69,0,0,1-.83-.25,8.33,8.33,0,0,0-1.42-.29l-2.19-.24a26.84,26.84,0,0,0-3.32-.27,6.43,6.43,0,0,0-.83,0,7.31,7.31,0,0,1-2-.06,2,2,0,0,1-1.06-.78l-.3-.3a2.86,2.86,0,0,0-2.61-.44c-.43,0-.89.11-1.33.11h0c-.2,0-.48,0-.79,0-1.74.11-3.28.13-3.9-.86a1.34,1.34,0,0,1-.07-.27c-.32.34-.67.67-1,1s-.71.65-1,1a6.86,6.86,0,0,0-.86,1.39,8,8,0,0,1-1,1.58c-1.26,1.53-2.7,1.24-3.95,1-.28-.05-.57-.12-.86-.16-1.37-.17-1.56.3-2,1.37a6.16,6.16,0,0,1-1.39,2.24c-.72.71-1.5,1.37-2.28,2s-1.61,1.38-2.37,2.11a7.88,7.88,0,0,0-1.56,2.81c-.67,1.69-1.45,3.59-3.69,3.93l-.32,0a5.24,5.24,0,0,0-3.26,1.29c-1,.87-.83,2.41-.44,4.85a11.06,11.06,0,0,1,.09,4.71.76.76,0,0,1-.43.46c-.71.26-1.43.5-2.16.73a33.37,33.37,0,0,0-4.45,1.75,5.61,5.61,0,0,1-2.1.49c-1.05.1-1.67.18-2.05.95a17.25,17.25,0,0,0-1.16,5.28l-.08.77c0,.28-.08.59-.12.89a10,10,0,0,1-1.14,4.46,10.53,10.53,0,0,1-5.36,4,30.69,30.69,0,0,1-8.61.22,20.8,20.8,0,0,1-2.3-.46c-.63-.12-1.26-.28-1.9-.37a9.16,9.16,0,0,0-1-.11,5.91,5.91,0,0,1-3.65-1.13,4.59,4.59,0,0,1-.78-1.12,4.05,4.05,0,0,0-.41-.71,9.14,9.14,0,0,0-1.1-1c-.31-.28-.63-.58-.94-.89-1.06-1.08-1.8-.95-3.27-.69l-.57.09c-.3,0-.73.07-1.2.09-1.13,0-3.21.13-3.4,1a3.33,3.33,0,0,0,.15,1,4.92,4.92,0,0,1,.2,1.65,6.89,6.89,0,0,1-.49,1.81,6.93,6.93,0,0,0-.34,1.14,8.61,8.61,0,0,0,0,2.06,7.18,7.18,0,0,1-.39,3.58,4.27,4.27,0,0,1-2.85,2.05,11.38,11.38,0,0,0-1.13.47,21,21,0,0,0-3.26,2.36,17.05,17.05,0,0,1-4.37,2.9,10.26,10.26,0,0,0-1.3.72,4.88,4.88,0,0,1-2.66,1h-.1a15.75,15.75,0,0,1-3.22-.58,17.51,17.51,0,0,0-2.16-.48c-4.21-.59-6.47-2.76-6.18-5.94a6,6,0,0,1,1.7-3.6c.86-1,1.43-1.74.88-3.51-.26-.87-.51-1.81-.75-2.74a24.22,24.22,0,0,0-2.1-6c-1-1.7-2.38-4.13-4.07-4.78,0,.34,0,.69,0,1,0,.58,0,1.16,0,1.73v.9c0,.94,0,1.89,0,2.83,0,1.87,0,3.76,0,5.61a12.25,12.25,0,0,0,.12,1.26,17.56,17.56,0,0,1,.12,1.82c0,1.36-.05,2.68-.11,4s-.13,2.63-.13,3.95,0,2.72,0,4.07,0,2.74,0,4.11c0,1,0,1.89-.06,2.83,0,1.22-.07,2.44,0,3.66l0,1.27a25.62,25.62,0,0,1-.09,5c0,.31-.09.67-.17,1a8.24,8.24,0,0,0-.18,3l.36,0a.71.71,0,0,1,.63.77.69.69,0,0,1-.64.75h-.17c0,.06,0,.11-.06.12a.53.53,0,0,1-.4.19.6.6,0,0,1-.48-.28,0,0,0,0,1,0,0H60.4a5.21,5.21,0,0,0-1.72.69l-.57.31-.21.08a10.13,10.13,0,0,0-2.74,1.74,3.54,3.54,0,0,0-.61,1,4.51,4.51,0,0,1-1,1.49,3.75,3.75,0,0,1-.53.44,5.23,5.23,0,0,0-.63.59l-.14.27a1.92,1.92,0,0,1-.69.89c-1,.6-1.82-.5-2.24-1.09a1.7,1.7,0,0,0-.27-.35,10.12,10.12,0,0,0-1.67-1.67c-.3-.22-.46-.14-1.06.44l-.32.31a4.92,4.92,0,0,1-2.53,1.15,3.8,3.8,0,0,1-2-.38,5.63,5.63,0,0,0-.69-.24c-.52-.16-1-.28-1.57-.4l-1-.24a23.74,23.74,0,0,1-2.28-.68,7.19,7.19,0,0,0-1.68-.37,10.92,10.92,0,0,1-1.59-.32c-1.52-.45-2-2.67-2.47-4.45-.1-.44-.2-.86-.31-1.18s-.18-.6-.26-.94a8.78,8.78,0,0,0-.73-2.06,5.81,5.81,0,0,0-1.64-1.44.73.73,0,0,0-.25-.12,2.31,2.31,0,0,0-.34.52,4.77,4.77,0,0,0-.25.46l-.63.94a9.33,9.33,0,0,0-1.12,2l-.17.46a7.61,7.61,0,0,1-1.09,2.31,4.68,4.68,0,0,1-.48.62,5.66,5.66,0,0,0-1.15,1.94,5.45,5.45,0,0,0,.44,2.66l.08.23a10.54,10.54,0,0,0,1.17,2.26,14.35,14.35,0,0,1,1.2,2.24,19.72,19.72,0,0,1,.67,2.36c.08.34.16.69.27,1.05a16.82,16.82,0,0,0,1.57,4,7.88,7.88,0,0,1,1.35,3.66,10.78,10.78,0,0,0,1.17,3.54,36.09,36.09,0,0,0,4.08,6.58c.19.24.39.5.58.76s.48.66.76,1l.25.24a4.41,4.41,0,0,1,.73.84,8.6,8.6,0,0,1,.87,2,7.93,7.93,0,0,0,.4,1.13,15.93,15.93,0,0,0,1.16,2c.2.31.38.63.57.94s.46.71.67,1.06a9.44,9.44,0,0,1,1.83,4.11A24.53,24.53,0,0,1,42,240c0,.5,0,1,0,1.52a13.15,13.15,0,0,1-.3,4.41,5.87,5.87,0,0,1-2.61,3.05,9.57,9.57,0,0,0-1.1.87l-.58.49c-.27.23-.67.55-.7.72,0,0,0,.13.21.48a14.58,14.58,0,0,1,1.27,3c.19.56.38,1.13.59,1.68.43,1,1,2,1.5,2.93l.36.66a11.56,11.56,0,0,1,.89,2.16c.17.47.35,1,.55,1.43a8.44,8.44,0,0,1,.51,4.16l0,.77a16.2,16.2,0,0,0,0,1.71,7.83,7.83,0,0,0,.1.83,6.72,6.72,0,0,1,.14.86c.24.16.47.31.69.47s.53.35.81.51a4.13,4.13,0,0,0,1.66.36l.62.08a26.43,26.43,0,0,1,6.86,2.36l.21.1a14.88,14.88,0,0,1,3.63,2.06l.5.43a3.55,3.55,0,0,0,1.5,1c.23.05.28,0,.6-.51a5.49,5.49,0,0,1,.5-.69,11.46,11.46,0,0,1,1.76-1.51c.63-.44,1.26-.89,1.89-1.36a5.67,5.67,0,0,1,1.55-.75,5.05,5.05,0,0,0,1.17-.55,4.4,4.4,0,0,0,.41-.31,3.33,3.33,0,0,1,2-.88,21.45,21.45,0,0,0,2.24-.21c.43-.06.87-.13,1.31-.17a40.87,40.87,0,0,1,5.42-.06c.85,0,1.72.06,2.56.06a4.38,4.38,0,0,0,2.89-1,20.78,20.78,0,0,1,2.32-1.34,10,10,0,0,0,1-.52l.82-.39a9.82,9.82,0,0,0,2-1.23,4.87,4.87,0,0,1,3.75-1.29h.12c3.07,0,6.09,0,9,.28a23.86,23.86,0,0,1,7.91,1.71c.32.17.66.33,1,.53,1.72.89,3.66,1.89,5,.71a26.19,26.19,0,0,1,4.07-2.89,33.16,33.16,0,0,0,3-2,3.28,3.28,0,0,0,.77-.89,6,6,0,0,1,.39-.53,3,3,0,0,1,1.81-1.06,10,10,0,0,1,4.68.12c.32.05.66.09,1,.16.59.08,1.16.19,1.75.33a5.87,5.87,0,0,1,.63.24c.5.22.66.26.88.09a2.83,2.83,0,0,0,.32-.42,3.48,3.48,0,0,1,.51-.64,3.67,3.67,0,0,1,1.15-.69,6.81,6.81,0,0,1,1.87-1.1l.58-.24a9,9,0,0,0,1.57-1,11.5,11.5,0,0,1,1.91-1.11,5.36,5.36,0,0,1,1.57-.35,4.75,4.75,0,0,0,1.19-.22,6.31,6.31,0,0,0,1.82-1.76,17.79,17.79,0,0,1,4.26-3.88,20.55,20.55,0,0,0,4-3.74,14.87,14.87,0,0,1,2.67-2.57,22.93,22.93,0,0,1,2.11-1.32,19.18,19.18,0,0,0,2.26-1.49,6.26,6.26,0,0,0,1.06-1.15,12.16,12.16,0,0,1,.91-1.07,14,14,0,0,0,1.88-2.46,15.11,15.11,0,0,1,2.31-2.89,18.49,18.49,0,0,0,3.55-4.17,42.6,42.6,0,0,1,4-5.76,21.42,21.42,0,0,0,2.57-3.66,20.39,20.39,0,0,1,1.22-1.88,14.37,14.37,0,0,0,1-1.36,7.88,7.88,0,0,1,1.63-1.86,9.81,9.81,0,0,0,1-1,14.17,14.17,0,0,0,2-3.88,26.4,26.4,0,0,1,1.2-2.72,12.64,12.64,0,0,1,2.91-3.39,14.19,14.19,0,0,0,2.29-2.44,11.5,11.5,0,0,1,.85-1.13,14.11,14.11,0,0,0,.85-1.18l.33-.52a16.6,16.6,0,0,1,1.66-2.43,10,10,0,0,1,1.33-1.27,9.58,9.58,0,0,0,1.27-1.28,5.14,5.14,0,0,0,.35-.55c.09-.15.19-.29.27-.44a4.47,4.47,0,0,1,.61-.67,4.76,4.76,0,0,0,.39-.44,2,2,0,0,0,.2-.41,4.23,4.23,0,0,1,.39-.69c.33-.47.67-.89,1-1.3a13,13,0,0,0,.87-1.09l.39-.54a8.5,8.5,0,0,0,1.48-2.49c.16-.55.25-1.09.36-1.64a13.28,13.28,0,0,1,.48-2.09c.31-.92.67-1.84,1-2.75.28-.7.57-1.41.81-2.13.13-.38.29-.79.45-1.19a16.36,16.36,0,0,0,.93-2.89,2.89,2.89,0,0,0-.19-1.27,6.33,6.33,0,0,1-.25-1.07"/><path class="cls-1" d="M38.48,285.29c-.89-.75-1.77-1.5-2.63-2.28-.26-.23-.51-.47-.76-.71-.74-.68-1.47-1.37-2.18-2.07l-.73-.72c-.82-.83-1.63-1.68-2.42-2.53l-.81-.89c-.77-.86-1.53-1.73-2.27-2.62l-.74-.9c-.75-.92-1.48-1.85-2.19-2.8-.19-.25-.38-.5-.56-.76-.65-.87-1.27-1.75-1.89-2.65l-.45-.66c-.69-1-1.35-2.05-2-3.1l-.54-.87c-.62-1-1.23-2.09-1.81-3.16l-.48-.88c-.59-1.1-1.16-2.21-1.7-3.33-.12-.23-.22-.47-.33-.7-.53-1.1-1-2.2-1.51-3.32-.06-.16-.13-.3-.19-.46-.51-1.2-1-2.42-1.45-3.66-.09-.25-.19-.51-.29-.77-.43-1.21-.85-2.43-1.23-3.66-.09-.27-.17-.54-.26-.81-.38-1.26-.74-2.52-1.07-3.8-.06-.21-.11-.42-.16-.63-.33-1.31-.64-2.63-.91-4,0-.06,0-.12,0-.19-.28-1.36-.52-2.74-.73-4.13,0-.23-.08-.45-.11-.68-.2-1.34-.37-2.69-.52-4,0-.26,0-.52-.08-.79-.13-1.36-.24-2.74-.31-4.12l0-.63C5,216.55,5,215.08,5,213.61H5c0-1.44,0-2.86.11-4.28l.06-1.2c.07-1.14.16-2.27.26-3.4,0-.31,0-.62.09-.92.14-1.38.32-2.75.52-4.11,0-.35.11-.7.17-1,.17-1.06.36-2.12.56-3.17l.24-1.2c.28-1.32.58-2.64.91-3.93,0-.21.11-.41.17-.61.29-1.11.61-2.22.94-3.32.14-.44.27-.88.42-1.33.3-.94.61-1.87.94-2.8l.39-1.1c.44-1.19.91-2.36,1.39-3.52.19-.46.39-.91.59-1.37q.51-1.17,1.05-2.31l.69-1.47c.49-1,1-2,1.51-2.94.29-.55.6-1.09.91-1.64s.76-1.34,1.15-2,.66-1.1,1-1.64.73-1.16,1.11-1.73c.55-.84,1.11-1.68,1.69-2.51.42-.59.83-1.18,1.25-1.75s.88-1.17,1.33-1.75q.48-.63,1-1.26c.47-.6.95-1.19,1.44-1.78l.67-.77c1-1.18,2.05-2.32,3.11-3.44l.81-.86c.6-.61,1.2-1.21,1.81-1.81l.67-.63c1.33-1.27,2.69-2.51,4.09-3.7a1.07,1.07,0,0,0,.16-.14c.71-.6,1.44-1.19,2.17-1.77.21-.16.42-.32.62-.49q3.47-2.7,7.17-5.08l.48-.3c.84-.53,1.68-1.05,2.53-1.55l.13-.07c1.81-1.06,3.65-2.07,5.54-3h0l1.7-.83h0a92.59,92.59,0,0,1,10.28-4.12l.17-.06a91.89,91.89,0,0,1,11-2.94h0c1.46-.29,2.92-.55,4.4-.78,1.23-.18,2.48-.34,3.73-.47.6-.07,1.2-.12,1.81-.18l1.75-.13c2.25-.16,4.51-.28,6.8-.28,1.92,0,3.83.08,5.73.2h0a89.86,89.86,0,0,1,9.2,1h0c1.5.24,3,.51,4.47.82l.17,0c1.43.31,2.85.64,4.26,1h0c1.09.29,2.16.6,3.23.92h0c1,.29,1.89.6,2.83.92l1.08.36c.89.31,1.77.64,2.64,1l1.14.45q1.32.53,2.61,1.08l.86.39c-.32-2.62-.3-5.88,2.47-8.3a9.51,9.51,0,0,1,2-1.42l-1.71-.82c.49-1,1-2.18,1.32-3.08.81-2.13,1.35-2.93,0-3.73s-2.44,1.86-3,4a6.93,6.93,0,0,1-.76,1.72,99.73,99.73,0,0,0-11.2-4,175.36,175.36,0,0,0-3.07-18.07c-3.7-17.95,5.75-28.8,9.32-33s7.93-14.22,9.4-15.48,4.3-3.19,3.26-5.85-7.3-5.39-11.43-3.09-.23,6.12,1.06,10.68-4.1,10.31-10.53,19.88-4.81,22.2-1.64,36.36a55.12,55.12,0,0,1,1.23,7.94,97.39,97.39,0,0,0-10-2.08c0-3.74-.22-8.42.68-11,1.57-4.46-2.63-20.73-2.1-29.13s2.88-11.55,4.46-13.65,0-3.93-3.15-4.2-2.36,1.58-2.89,3.68-1.83,15.48-1,22.83,2.89,17.58,2.1,21.52c-.67,3.38-1.34,7-.85,9.56a99.79,99.79,0,0,0-10.43-.73c-2.42-15.77,4.15-34.8,5.33-45.28,1.48-13-2.46-38.88-1.23-44.3s5.91-7.38,6.4-8.86,3.69-2.7,4.92-5.66S112-.93,106.82.3,95,1,85.66,1.29,70.89,4.49,64,12.36s1.72,14,8.37,12.55S79,25.9,87.14,35.5,97.47,63.06,94,81.76a75.67,75.67,0,0,0-.5,27.15,98.39,98.39,0,0,0-12.93,1.52c-.92-8.77,1.31-18.6,1.42-24.25.16-8.18-3.77-24-3.32-27.43s3.24-4.93,3.46-5.87,2.14-1.9,2.73-3.8-2.62-3.3-5.76-2.24S71.84,48,66.05,48.67s-9,2.84-12.81,8.13,1.88,8.61,5.92,7.31,4.19.23,9.78,5.72,8,16.51,7,28.32a51.24,51.24,0,0,0,.42,13.17c-1.57.36-3.14.76-4.68,1.2-.09-.14-.16-.29-.25-.43-6.13-9.66-11.27-15.49-10.06-20s4.89-8.28,1-10.64-9.84.26-10.81,2.9,1.71,4.61,3.11,5.9,5.56,11.29,9,15.59a51.37,51.37,0,0,1,5.17,7.56q-4.33,1.37-8.49,3.12a7,7,0,0,1-.69-1.59c-.55-2.13-1.63-4.79-3-4s-.81,1.6,0,3.73c.33.85.79,1.93,1.26,2.94-1.49.67-3,1.39-4.4,2.13-3.12-4.22-4.86-8.81-4.25-12.21.65-3.64.29-4.29,2.17-4.82s3.15-3.33.29-4.46-4.65-1.16-7,.06-4,2.26-5.45,2.64-2.31,1.78-1.58,2.39,1.72.49,2.05.81,1.8.2,2.89,1.46,3.83,8.62,6.09,11.86c.65.94,1.65,2.08,2.73,3.36A98.52,98.52,0,0,0,39.74,286.34l-.31-.26-1-.79Z"/><path class="cls-1" d="M194.11,209.48a8.4,8.4,0,0,0-1.76,1.91c-.13.24-.25.52-.38.81,0,.47,0,.93,0,1.4,0,1.48,0,3-.11,4.41,0,.21,0,.42,0,.62-.08,1.39-.19,2.77-.32,4.14,0,.26-.05.51-.08.77q-.21,2-.51,4.05c0,.23-.07.45-.11.67-.22,1.39-.46,2.78-.74,4.14,0,.06,0,.13,0,.19-.27,1.33-.58,2.65-.91,4-.06.21-.11.42-.16.63-.33,1.28-.69,2.54-1.08,3.8-.08.27-.16.54-.25.81-.39,1.23-.8,2.45-1.24,3.66-.09.26-.19.51-.28.77-.46,1.23-.94,2.46-1.45,3.67-.06.15-.13.29-.19.44-.49,1.12-1,2.24-1.51,3.34l-.33.69c-.54,1.12-1.12,2.23-1.7,3.33l-.48.88c-.59,1.07-1.19,2.12-1.82,3.16-.17.29-.35.58-.53.87-.65,1-1.31,2.09-2,3.1l-.45.66c-.62.9-1.25,1.78-1.89,2.66l-.56.75c-.71,1-1.45,1.88-2.2,2.8l-.74.9c-.74.89-1.49,1.76-2.27,2.62-.26.3-.53.59-.8.88-.8.86-1.6,1.71-2.42,2.54l-.73.71c-.72.71-1.45,1.4-2.19,2.09l-.75.7c-.86.78-1.74,1.53-2.63,2.28-.32.26-.63.53-1,.79l-.31.26A98.35,98.35,0,0,0,197,207.28c0-.29,0-.58,0-.87a20.3,20.3,0,0,1-2.87,3.07Z"/></g></g></svg>